# Blender 4.1.1
# www.blender.org
mtllib columns.mtl
o Cube
v 0.700000 2.000000 -0.700000
v 0.700000 -2.000000 -0.700000
v 0.700000 2.000000 0.700000
v 0.700000 -2.000000 0.700000
v -0.700000 2.000000 -0.700000
v -0.700000 -2.000000 -0.700000
v -0.700000 2.000000 0.700000
v -0.700000 -2.000000 0.700000
v 0.000000 -2.000000 -1.000000
v 0.000000 2.000000 1.000000
v 0.000000 -2.000000 1.000000
v 0.000000 2.000000 -1.000000
v -1.000000 -2.000000 0.000000
v 1.000000 2.000000 0.000000
v -1.000000 2.000000 0.000000
v 1.000000 -2.000000 0.000000
v 0.840000 -2.250000 -0.840000
v 0.840000 2.250000 -0.840000
v 0.840000 2.000000 -0.840000
v 0.840000 2.000000 0.840000
v -0.840000 2.000000 -0.840000
v -0.840000 2.000000 0.840000
v 0.000000 2.000000 1.200000
v 0.000000 2.000000 -1.200000
v 1.200000 2.000000 0.000000
v -1.200000 2.000000 0.000000
v 0.840000 -2.000000 -0.840000
v 0.840000 2.250000 0.840000
v -0.840000 2.250000 -0.840000
v -0.840000 2.250000 0.840000
v 0.000000 2.250000 1.200000
v 0.000000 2.250000 -1.200000
v 1.200000 2.250000 0.000000
v -1.200000 2.250000 0.000000
v 0.000000 2.250000 0.000000
v 0.840000 -2.000000 0.840000
v -0.840000 -2.000000 -0.840000
v -0.840000 -2.000000 0.840000
v 0.000000 -2.000000 -1.200000
v 0.000000 -2.000000 1.200000
v -1.200000 -2.000000 0.000000
v 1.200000 -2.000000 0.000000
v 0.840000 -2.250000 0.840000
v -0.840000 -2.250000 -0.840000
v -0.840000 -2.250000 0.840000
v 0.000000 -2.250000 -1.200000
v 0.000000 -2.250000 1.200000
v -1.200000 -2.250000 0.000000
v 1.200000 -2.250000 0.000000
v 0.000000 -2.250000 0.000000
vn -0.0000 -1.0000 -0.0000
vn -0.3939 -0.0000 0.9191
vn -0.9191 -0.0000 -0.3939
vn -0.0000 1.0000 -0.0000
vn 0.9191 -0.0000 0.3939
vn 0.3939 -0.0000 -0.9191
vn -0.3939 -0.0000 -0.9191
vn 0.3939 -0.0000 0.9191
vn 0.9191 -0.0000 -0.3939
vn -0.9191 -0.0000 0.3939
vt 0.625000 0.625000
vt 0.625000 0.500000
vt 0.375000 0.875000
vt 0.625000 0.875000
vt 0.625000 1.000000
vt 0.375000 1.000000
vt 0.375000 0.125000
vt 0.625000 0.125000
vt 0.625000 0.250000
vt 0.375000 0.250000
vt 0.375000 0.625000
vt 0.625000 0.750000
vt 0.375000 0.750000
vt 0.375000 0.375000
vt 0.625000 0.375000
vt 0.375000 0.500000
vt 0.375000 0.000000
vt 0.625000 0.000000
vt 0.750000 0.625000
vt 0.875000 0.625000
vt 0.875000 0.750000
vt 0.750000 0.750000
vt 0.750000 0.500000
vt 0.875000 0.500000
vt 0.250000 0.625000
vt 0.250000 0.750000
vt 0.125000 0.625000
vt 0.125000 0.750000
vt 0.125000 0.500000
vt 0.250000 0.500000
s 0
usemtl Material
f 14/1/1 1/2/1 19/2/1 25/1/1
f 11/3/2 10/4/2 7/5/2 8/6/2
f 13/7/3 15/8/3 5/9/3 6/10/3
f 11/3/4 8/6/4 38/6/4 40/3/4
f 16/11/5 14/1/5 3/12/5 4/13/5
f 9/14/6 12/15/6 1/2/6 2/16/6
f 6/10/7 5/9/7 12/15/7 9/14/7
f 13/7/4 6/10/4 37/10/4 41/7/4
f 4/13/8 3/12/8 10/4/8 11/3/8
f 3/12/1 14/1/1 25/1/1 20/12/1
f 5/9/1 15/8/1 26/8/1 21/9/1
f 2/16/4 16/11/4 42/11/4 27/16/4
f 2/16/9 1/2/9 14/1/9 16/11/9
f 8/17/4 13/7/4 41/7/4 38/17/4
f 8/17/10 7/18/10 15/8/10 13/7/10
f 15/8/1 7/18/1 22/18/1 26/8/1
f 21/9/3 26/8/3 34/8/3 29/9/3
f 23/4/8 20/12/8 28/12/8 31/4/8
f 26/8/10 22/18/10 30/18/10 34/8/10
f 20/12/5 25/1/5 33/1/5 28/12/5
f 1/2/1 12/15/1 24/15/1 19/2/1
f 7/5/1 10/4/1 23/4/1 22/5/1
f 12/15/1 5/9/1 21/9/1 24/15/1
f 10/4/1 3/12/1 20/12/1 23/4/1
f 35/19/4 34/20/4 30/21/4 31/22/4
f 33/1/4 35/19/4 31/22/4 28/12/4
f 18/2/4 32/23/4 35/19/4 33/1/4
f 32/23/4 29/24/4 34/20/4 35/19/4
f 22/5/2 23/4/2 31/4/2 30/5/2
f 25/1/9 19/2/9 18/2/9 33/1/9
f 24/15/7 21/9/7 29/9/7 32/15/7
f 19/2/6 24/15/6 32/15/6 18/2/6
f 40/3/2 38/6/2 45/6/2 47/3/2
f 41/7/3 37/10/3 44/10/3 48/7/3
f 38/17/10 41/7/10 48/7/10 45/17/10
f 36/13/8 40/3/8 47/3/8 43/13/8
f 16/11/4 4/13/4 36/13/4 42/11/4
f 9/14/4 2/16/4 27/16/4 39/14/4
f 6/10/4 9/14/4 39/14/4 37/10/4
f 4/13/4 11/3/4 40/3/4 36/13/4
f 50/25/1 49/11/1 43/13/1 47/26/1
f 48/27/1 50/25/1 47/26/1 45/28/1
f 44/29/1 46/30/1 50/25/1 48/27/1
f 46/30/1 17/16/1 49/11/1 50/25/1
f 27/16/9 42/11/9 49/11/9 17/16/9
f 37/10/7 39/14/7 46/14/7 44/10/7
f 42/11/5 36/13/5 43/13/5 49/11/5
f 39/14/6 27/16/6 17/16/6 46/14/6
